<svg xmlns="http://www.w3.org/2000/svg" width="17.43" height="13.944" viewBox="0 0 15.264 15.263">
    <path data-name="Icon ionic-ios-call" d="M19.314 16.454a12.821 12.821 0 0 0-2.678-1.792c-.8-.385-1.1-.377-1.665.032-.473.342-.779.66-1.323.54a7.894 7.894 0 0 1-2.658-1.967 7.837 7.837 0 0 1-1.967-2.658c-.115-.548.2-.85.54-1.323.409-.568.421-.862.032-1.665A12.568 12.568 0 0 0 7.8 4.942c-.584-.584-.715-.457-1.037-.342a5.9 5.9 0 0 0-.95.5 2.865 2.865 0 0 0-1.14 1.2c-.227.489-.489 1.4.846 3.775a21.064 21.064 0 0 0 3.7 4.939 21.146 21.146 0 0 0 4.939 3.7c2.376 1.335 3.286 1.073 3.775.846a2.816 2.816 0 0 0 1.2-1.14 5.9 5.9 0 0 0 .5-.95c.137-.301.267-.432-.319-1.016z" transform="translate(-4.49 -4.503)" style="fill:#4d148c"/>
</svg>
