<svg xmlns="http://www.w3.org/2000/svg" width="137.954" height="53.508" viewBox="0 0 137.954 53.508">
  <g id="Group_455" data-name="Group 455" transform="translate(-415.245 -262.437)">
    <g id="Group_136" data-name="Group 136" transform="translate(421.295 268.354)">
      <ellipse id="Ellipse_28" data-name="Ellipse 28" cx="5.183" cy="4.837" rx="5.183" ry="4.837" transform="translate(0 0)" fill="#4d148c"/>
      <path id="Path_48" data-name="Path 48" d="M611.592,357.41s11.966-24.375,32.606-4.812a5.093,5.093,0,0,0,1.14-3.229s-19.671-24.151-33.746,7.821" transform="translate(-609.918 -334.23)" fill="#4d148c"/>
      <path id="Path_49" data-name="Path 49" d="M703.5,372.459s-1.92,7.171-11.758,9.071a32.52,32.52,0,0,0,0,4.578s12.489-2.222,12-13.25" transform="translate(-668.186 -357.391)" fill="#4d148c"/>
      <path id="Path_50" data-name="Path 50" d="M610.24,404.3s4.4.759,4.972-.444c-.1,2.319-.413,4.5-.413,4.5a8.445,8.445,0,0,1-5.065,0C610.114,405.625,610.24,404.3,610.24,404.3Z" transform="translate(-608.566 -381.319)" fill="#4d148c"/>
      <path id="Path_51" data-name="Path 51" d="M618.423,359.958s11.667,5.736,8.778,18.576c-2.033,8.667-12.733,11.877-16.692,10.914-.214,4.066-.642,4.815-.642,4.815s14.017.749,17.976-14.98c3.531,11.128,12.2,14.873,18.19,14.98.321-3.424.457-4.471.457-4.471a17.867,17.867,0,0,1-17.107-13.471c.988-9.794-6-18.24-6-18.24" transform="translate(-608.663 -346.929)" fill="#4d148c"/>
      <path id="Path_52" data-name="Path 52" d="M627.833,432.78l-.574-1.233s-2.264,11.192-16.8,11.337a22.244,22.244,0,0,1-.643,4.832s14.352.619,17.963-14.7" transform="translate(-608.624 -400.379)" fill="#4d148c"/>
      <path id="Path_62" data-name="Path 62" d="M8.64-4.393c3.568,0,6.433-1.595,7.136-4.217l-4.352-.784A2.669,2.669,0,0,1,8.91-7.88a2.832,2.832,0,0,1-2.865-2.46H16.236a10.228,10.228,0,0,0,.081-1.379c0-4.46-3.028-7.325-7.623-7.325-4.622,0-7.866,2.838-7.866,7.271C.828-7.285,4.018-4.393,8.64-4.393Zm-2.649-8.65a2.645,2.645,0,0,1,2.6-2.514,2.678,2.678,0,0,1,2.622,2.514Z" transform="translate(39.182 51.875)" fill="#4d148c"/>
      <path id="Path_61" data-name="Path 61" d="M2.052-6.691h5.7v-6.974h7.866v-4.271H7.756v-3.244h9.11v-4.866H2.052Zm16.624,0h5.055v-6.92c0-1.811,1.081-3.028,2.622-3.028a6.836,6.836,0,0,1,2.433.568v-4.487a3.586,3.586,0,0,0-1.541-.351A3.548,3.548,0,0,0,24-18.666h-.3v-1.973H18.676Zm18.841.351c3.568,0,6.433-1.595,7.136-4.217L40.3-11.34a2.669,2.669,0,0,1-2.514,1.514,2.832,2.832,0,0,1-2.865-2.46H45.113a10.228,10.228,0,0,0,.081-1.379c0-4.46-3.028-7.325-7.623-7.325-4.622,0-7.866,2.838-7.866,7.271C29.705-9.232,32.895-6.339,37.517-6.339Zm-2.649-8.65a2.645,2.645,0,0,1,2.6-2.514,2.678,2.678,0,0,1,2.622,2.514ZM53.249-6.231c4.433,0,7.163-1.892,7.163-5,0-3.3-3.19-3.92-5.731-4.19-1.865-.216-3.514-.27-3.514-1.325,0-.757.811-1.27,1.946-1.27,1.3,0,2.217.649,2.244,1.622h4.487c0-2.865-2.865-4.676-6.731-4.676-3.974,0-6.6,1.838-6.6,4.785,0,3.865,3.7,4.082,6.217,4.325,1.46.135,2.649.3,2.649,1.3,0,.838-.838,1.352-2.027,1.352-1.595,0-2.622-.784-2.622-1.973h-4.3C46.437-8.15,49.059-6.231,53.249-6.231Zm9.028-.46h5.055v-7.677a2.165,2.165,0,0,1,2.081-2.379,2.016,2.016,0,0,1,1.946,2.271v7.785h5.082v-8.7c0-3.244-2.027-5.6-4.92-5.6a4.5,4.5,0,0,0-3.92,2.352h-.27v-8.218H62.278Z" transform="translate(55.462 53.822)" fill="#4d148c"/>
    </g>
    <path id="Subtraction_1" data-name="Subtraction 1" d="M5.465,11.206h0L1.788,10.177a1.027,1.027,0,0,1-.076.134.947.947,0,0,1-.767.4.931.931,0,0,1-.555-.183A.968.968,0,0,1,.181,9.182a.945.945,0,0,1,.766-.4A.933.933,0,0,1,1.5,8.97a.973.973,0,0,1,.265.3L3.3,8.615a.629.629,0,0,0,.34-.355.642.642,0,0,0-.013-.5L2.3,4.774a.967.967,0,0,1-.246.032.924.924,0,0,1-.55-.18.968.968,0,0,1-.21-1.339.946.946,0,0,1,.767-.4.933.933,0,0,1,.556.183A.957.957,0,0,1,3,3.8l3.22.357a.606.606,0,0,0,.07,0,.63.63,0,0,0,.627-.582l.147-1.679a.923.923,0,0,1-.367-.161.954.954,0,0,1-.378-.625A.96.96,0,0,1,6.485.4.947.947,0,0,1,7.252,0a.934.934,0,0,1,.556.183.968.968,0,0,1,.209,1.339.945.945,0,0,1-.1.115l2.238,3.431-.008.011a5.315,5.315,0,0,0-4.738,5.327,5.461,5.461,0,0,0,.058.8Z" transform="translate(415.245 262.437)" fill="#4d148c"/>
  </g>
</svg>
